<svg xmlns="http://www.w3.org/2000/svg" width="24pt" height="19pt" viewBox="0 0 24 19" version="1.1">
<g id="surface1">
<path style=" stroke:none;fill-rule:evenodd;fill:rgb(0%,0%,0%);fill-opacity:1;" d="M 11.421875 10.09375 C 11.5 10.296875 11.605469 10.472656 11.738281 10.613281 C 11.871094 10.753906 12.03125 10.863281 12.214844 10.9375 C 12.398438 11.011719 12.601562 11.046875 12.820312 11.046875 C 12.984375 11.046875 13.132812 11.035156 13.261719 11.007812 C 13.386719 10.980469 13.507812 10.941406 13.625 10.898438 L 13.625 10.140625 L 13.109375 10.140625 C 13.035156 10.140625 12.976562 10.121094 12.933594 10.082031 C 12.890625 10.042969 12.867188 9.996094 12.867188 9.9375 L 12.867188 9.300781 L 14.714844 9.300781 L 14.714844 11.402344 C 14.582031 11.496094 14.441406 11.578125 14.296875 11.644531 C 14.15625 11.710938 14 11.769531 13.839844 11.8125 C 13.675781 11.855469 13.503906 11.886719 13.320312 11.90625 C 13.136719 11.925781 12.9375 11.9375 12.726562 11.9375 C 12.347656 11.9375 11.996094 11.875 11.671875 11.746094 C 11.347656 11.617188 11.070312 11.4375 10.832031 11.210938 C 10.597656 10.984375 10.410156 10.714844 10.277344 10.402344 C 10.144531 10.09375 10.078125 9.753906 10.078125 9.390625 C 10.078125 9.015625 10.140625 8.675781 10.269531 8.363281 C 10.398438 8.054688 10.582031 7.785156 10.820312 7.558594 C 11.058594 7.332031 11.347656 7.15625 11.683594 7.03125 C 12.023438 6.90625 12.402344 6.84375 12.820312 6.84375 C 13.035156 6.84375 13.238281 6.859375 13.425781 6.894531 C 13.617188 6.929688 13.792969 6.976562 13.953125 7.035156 C 14.113281 7.09375 14.257812 7.164062 14.394531 7.246094 C 14.527344 7.328125 14.644531 7.417969 14.75 7.515625 L 14.398438 8.023438 C 14.367188 8.070312 14.328125 8.109375 14.28125 8.136719 C 14.234375 8.164062 14.183594 8.179688 14.128906 8.179688 C 14.058594 8.179688 13.984375 8.15625 13.910156 8.109375 C 13.8125 8.054688 13.722656 8.007812 13.640625 7.96875 C 13.554688 7.925781 13.46875 7.894531 13.382812 7.871094 C 13.292969 7.84375 13.199219 7.828125 13.101562 7.816406 C 13.007812 7.804688 12.898438 7.796875 12.777344 7.796875 C 12.550781 7.796875 12.347656 7.835938 12.167969 7.914062 C 11.984375 7.988281 11.832031 8.097656 11.707031 8.234375 C 11.578125 8.375 11.480469 8.542969 11.410156 8.738281 C 11.34375 8.933594 11.308594 9.148438 11.308594 9.390625 C 11.308594 9.652344 11.347656 9.886719 11.421875 10.09375 Z M 22.5 10.332031 C 22.328125 10.800781 22.117188 11.226562 21.859375 11.585938 C 22.117188 10.660156 22.230469 9.683594 22.175781 8.679688 C 21.796875 3.835938 17.589844 0.0195312 12.449219 0.0195312 C 9.21875 0.0195312 6.359375 1.527344 4.585938 3.851562 C 4.484375 3.992188 4.382812 4.132812 4.285156 4.277344 C 3.699219 5.1875 3.292969 6.15625 3.058594 7.144531 C 3.027344 6.300781 3.15625 5.386719 3.441406 4.429688 C 2.546875 4.546875 1.792969 4.757812 1.222656 5.058594 C 0.71875 5.328125 0.351562 5.664062 0.160156 6.074219 C 0.160156 6.074219 0.160156 6.074219 0.160156 6.078125 C 0.132812 6.136719 0.105469 6.195312 0.0859375 6.257812 C 0.0625 6.332031 0.0429688 6.40625 0.03125 6.484375 C 0.0273438 6.503906 0.0273438 6.527344 0.0234375 6.550781 C 0.015625 6.605469 0.0078125 6.660156 0.0078125 6.714844 C 0.00390625 6.742188 0.0078125 6.769531 0.0078125 6.792969 C 0.0078125 6.847656 0.0078125 6.898438 0.015625 6.953125 C 0.015625 6.980469 0.0234375 7.007812 0.0273438 7.035156 C 0.0351562 7.089844 0.0390625 7.144531 0.0546875 7.199219 C 0.0585938 7.222656 0.0664062 7.25 0.0742188 7.277344 C 0.0898438 7.332031 0.101562 7.390625 0.121094 7.449219 C 0.128906 7.472656 0.140625 7.496094 0.148438 7.519531 C 0.171875 7.582031 0.195312 7.644531 0.222656 7.707031 C 0.230469 7.726562 0.242188 7.75 0.253906 7.769531 C 0.285156 7.835938 0.316406 7.902344 0.351562 7.964844 C 0.363281 7.984375 0.375 8.003906 0.386719 8.023438 C 0.425781 8.09375 0.464844 8.160156 0.511719 8.230469 C 0.523438 8.246094 0.535156 8.265625 0.542969 8.28125 C 0.59375 8.351562 0.644531 8.425781 0.699219 8.5 C 0.710938 8.511719 0.71875 8.527344 0.730469 8.539062 C 0.789062 8.617188 0.851562 8.695312 0.914062 8.769531 C 0.925781 8.78125 0.933594 8.792969 0.941406 8.804688 C 1.011719 8.882812 1.082031 8.964844 1.160156 9.046875 C 1.164062 9.054688 1.171875 9.0625 1.179688 9.066406 C 1.261719 9.152344 1.34375 9.238281 1.429688 9.320312 C 1.433594 9.324219 1.441406 9.332031 1.445312 9.335938 C 1.535156 9.421875 1.628906 9.511719 1.722656 9.597656 C 1.726562 9.601562 1.730469 9.601562 1.734375 9.605469 C 1.835938 9.695312 1.9375 9.785156 2.046875 9.875 C 2.046875 9.875 2.046875 9.875 2.050781 9.878906 C 2.160156 9.96875 2.273438 10.058594 2.386719 10.148438 C 2.386719 10.148438 2.386719 10.148438 2.390625 10.148438 C 2.507812 10.242188 2.628906 10.332031 2.753906 10.421875 C 4.640625 11.789062 7.367188 13.105469 10.53125 14.066406 C 11.109375 14.242188 11.683594 14.398438 12.25 14.539062 C 8.710938 14.078125 5.75 13.496094 3.023438 11.804688 C 4.132812 15.808594 7.929688 18.761719 12.449219 18.761719 C 15.625 18.761719 18.441406 17.304688 20.222656 15.054688 C 22.070312 14.824219 23.335938 14.203125 23.660156 13.214844 C 23.941406 12.363281 23.492188 11.363281 22.5 10.332031 Z M 22.5 10.332031 "/>
</g>
</svg>
