<svg fill-rule="evenodd" clip-rule="evenodd" stroke-linecap="round" stroke-linejoin="round" stroke-miterlimit="2" width="100%" height="100%" viewBox="0 0 82 68" xmlns="http://www.w3.org/2000/svg">
	<path fill="#82878c" id="genesis_icon_small" d="M77.71,37.138c3.429,3.7 4.972,7.309 4.007,10.359c-1.128,3.565 -5.495,5.788 -11.872,6.618c-6.155,8.104 -15.891,13.34 -26.855,13.34c-15.613,0 -28.735,-10.618 -32.565,-25.026c9.417,6.084 19.646,8.178 31.871,9.842c-1.955,-0.506 -3.936,-1.071 -5.936,-1.704c-10.934,-3.459 -20.353,-8.193 -26.868,-13.107c-0.433,-0.328 -0.853,-0.654 -1.261,-0.981l-0.002,-0.003c-0.403,-0.326 -0.794,-0.651 -1.171,-0.977c-0.006,-0.006 -0.011,-0.008 -0.015,-0.013c-0.372,-0.322 -0.729,-0.642 -1.073,-0.963c-0.011,-0.01 -0.023,-0.021 -0.034,-0.031c-0.336,-0.313 -0.658,-0.626 -0.967,-0.939c-0.018,-0.018 -0.036,-0.036 -0.054,-0.055c-0.299,-0.302 -0.583,-0.605 -0.858,-0.907c-0.024,-0.028 -0.051,-0.056 -0.075,-0.083c-0.263,-0.292 -0.51,-0.583 -0.747,-0.872c-0.031,-0.039 -0.063,-0.075 -0.094,-0.113c-0.225,-0.278 -0.437,-0.555 -0.64,-0.833c-0.034,-0.047 -0.072,-0.096 -0.106,-0.143c-0.191,-0.266 -0.367,-0.529 -0.536,-0.793c-0.037,-0.057 -0.077,-0.115 -0.113,-0.174c-0.157,-0.249 -0.3,-0.499 -0.436,-0.748c-0.037,-0.067 -0.078,-0.136 -0.113,-0.204c-0.126,-0.237 -0.236,-0.471 -0.342,-0.706c-0.035,-0.077 -0.075,-0.155 -0.108,-0.231c-0.094,-0.224 -0.175,-0.445 -0.252,-0.666c-0.03,-0.084 -0.066,-0.171 -0.093,-0.256c-0.067,-0.21 -0.119,-0.419 -0.17,-0.626c-0.022,-0.091 -0.052,-0.184 -0.07,-0.275c-0.042,-0.201 -0.068,-0.399 -0.094,-0.596c-0.012,-0.095 -0.032,-0.191 -0.041,-0.286c-0.019,-0.194 -0.019,-0.384 -0.019,-0.575c-0.001,-0.094 -0.01,-0.191 -0.008,-0.284c0.008,-0.199 0.033,-0.393 0.058,-0.588c0.011,-0.082 0.012,-0.167 0.026,-0.248c0.047,-0.273 0.111,-0.545 0.195,-0.811c0.07,-0.221 0.153,-0.436 0.247,-0.647c0.003,-0.004 0.005,-0.009 0.007,-0.014c0.665,-1.468 1.925,-2.685 3.672,-3.647c-0.001,0 -0.002,-0.001 -0.003,-0.001c1.975,-1.085 4.577,-1.845 7.665,-2.27c-0.981,3.442 -1.434,6.733 -1.317,9.771c0.81,-3.554 2.205,-7.036 4.237,-10.306c0.328,-0.528 0.677,-1.037 1.028,-1.54c6.135,-8.354 16.017,-13.782 27.175,-13.782c17.753,0 32.29,13.728 33.6,31.144c0.185,3.618 -0.209,7.134 -1.101,10.461c0.89,-1.289 1.621,-2.821 2.221,-4.511Zm-39.404,-0.183c0.35,0.982 0.833,1.813 1.451,2.49c0.616,0.676 1.347,1.193 2.193,1.547c0.847,0.356 1.771,0.533 2.775,0.533c0.765,0 1.442,-0.067 2.031,-0.198c0.591,-0.131 1.146,-0.306 1.67,-0.524l0,-3.619l-2.357,0c-0.349,0 -0.622,-0.092 -0.819,-0.277c-0.196,-0.186 -0.294,-0.42 -0.294,-0.705l0,-3.046l8.481,0l0,10.072c-0.611,0.448 -1.246,0.832 -1.906,1.153c-0.661,0.323 -1.366,0.588 -2.113,0.795c-0.748,0.207 -1.546,0.36 -2.391,0.46c-0.847,0.098 -1.755,0.145 -2.727,0.145c-1.747,0 -3.362,-0.307 -4.848,-0.924c-1.484,-0.617 -2.77,-1.468 -3.855,-2.555c-1.087,-1.085 -1.939,-2.375 -2.555,-3.864c-0.617,-1.49 -0.925,-3.109 -0.925,-4.857c0,-1.778 0.294,-3.415 0.884,-4.905c0.589,-1.489 1.433,-2.775 2.531,-3.855c1.096,-1.082 2.423,-1.923 3.978,-2.522c1.556,-0.601 3.294,-0.902 5.215,-0.902c0.995,0 1.927,0.084 2.802,0.246c0.873,0.164 1.678,0.388 2.415,0.672c0.738,0.284 1.411,0.622 2.023,1.015c0.61,0.393 1.156,0.819 1.637,1.276l-1.605,2.441c-0.153,0.229 -0.335,0.41 -0.549,0.541c-0.212,0.131 -0.445,0.197 -0.696,0.197c-0.327,0 -0.665,-0.11 -1.015,-0.328c-0.436,-0.262 -0.849,-0.489 -1.235,-0.68c-0.388,-0.192 -0.785,-0.346 -1.189,-0.466c-0.404,-0.12 -0.829,-0.207 -1.277,-0.262c-0.447,-0.056 -0.949,-0.082 -1.507,-0.082c-1.037,0 -1.971,0.183 -2.799,0.549c-0.831,0.364 -1.537,0.882 -2.121,1.546c-0.586,0.667 -1.035,1.466 -1.352,2.399c-0.317,0.934 -0.475,1.974 -0.475,3.12c0,1.268 0.175,2.392 0.524,3.374Z"/>
</svg>
