<?xml version="1.0" encoding="UTF-8" standalone="no"?>
<!DOCTYPE svg PUBLIC "-//W3C//DTD SVG 1.1//EN" "http://www.w3.org/Graphics/SVG/1.1/DTD/svg11.dtd">
<svg width="100%" height="100%" viewBox="0 0 367 83" version="1.1" xmlns="http://www.w3.org/2000/svg" xmlns:xlink="http://www.w3.org/1999/xlink" xml:space="preserve" xmlns:serif="http://www.serif.com/" style="fill-rule:evenodd;clip-rule:evenodd;stroke-linejoin:round;stroke-miterlimit:2;">
    <g id="Genesis_Pro_Logo_Reverse">
        <path d="M143.674,52.88C144.738,52.88 145.678,52.788 146.499,52.606C147.32,52.424 148.095,52.181 148.824,51.876L148.824,46.842L145.543,46.842C145.057,46.842 144.678,46.713 144.404,46.455C144.131,46.197 143.994,45.87 143.994,45.475L143.994,41.238L155.795,41.238L155.795,55.249C154.943,55.872 154.059,56.408 153.14,56.854C152.221,57.304 151.242,57.671 150.201,57.958C149.161,58.249 148.052,58.46 146.875,58.598C145.698,58.735 144.433,58.803 143.081,58.803C140.653,58.803 138.403,58.375 136.339,57.515C134.274,56.658 132.485,55.474 130.973,53.961C129.462,52.45 128.278,50.659 127.419,48.584C126.561,46.511 126.133,44.26 126.133,41.83C126.133,39.355 126.543,37.08 127.363,35.006C128.183,32.933 129.356,31.146 130.881,29.642C132.409,28.138 134.254,26.969 136.418,26.134C138.583,25.297 141.002,24.881 143.674,24.881C145.057,24.881 146.356,24.994 147.571,25.222C148.784,25.45 149.905,25.761 150.93,26.156C151.956,26.551 152.893,27.022 153.745,27.569C154.595,28.116 155.355,28.708 156.023,29.344L153.79,32.74C153.578,33.059 153.323,33.31 153.026,33.492C152.732,33.674 152.407,33.766 152.059,33.766C151.603,33.766 151.132,33.614 150.646,33.31C150.039,32.945 149.465,32.631 148.926,32.364C148.386,32.098 147.835,31.882 147.273,31.715C146.711,31.548 146.119,31.427 145.498,31.351C144.873,31.275 144.176,31.237 143.4,31.237C141.957,31.237 140.66,31.492 139.506,31.999C138.352,32.508 137.368,33.226 136.555,34.151C135.742,35.079 135.117,36.191 134.676,37.49C134.236,38.788 134.016,40.234 134.016,41.83C134.016,43.592 134.257,45.156 134.745,46.523C135.231,47.889 135.902,49.045 136.76,49.985C137.618,50.926 138.636,51.645 139.813,52.138C140.99,52.632 142.278,52.88 143.674,52.88Z" style="fill:white;fill-rule:nonzero;"/>
        <path d="M170.119,39.324C168.769,39.324 167.712,39.709 166.952,40.476C166.193,41.241 165.692,42.347 165.449,43.79L174.265,43.79C174.265,43.228 174.194,42.681 174.05,42.149C173.904,41.618 173.668,41.142 173.343,40.726C173.015,40.307 172.587,39.97 172.057,39.712C171.524,39.453 170.878,39.324 170.119,39.324ZM169.982,34.449C171.548,34.449 172.979,34.692 174.277,35.176C175.576,35.664 176.692,36.369 177.628,37.297C178.56,38.223 179.288,39.358 179.813,40.702C180.337,42.046 180.6,43.569 180.6,45.27C180.6,45.8 180.577,46.235 180.53,46.567C180.485,46.903 180.401,47.169 180.281,47.366C180.16,47.564 179.996,47.699 179.789,47.776C179.585,47.852 179.324,47.889 179.004,47.889L165.382,47.889C165.61,49.865 166.208,51.297 167.182,52.185C168.152,53.072 169.407,53.516 170.939,53.516C171.759,53.516 172.465,53.419 173.059,53.221C173.65,53.024 174.179,52.804 174.642,52.561C175.104,52.316 175.53,52.097 175.919,51.9C176.305,51.702 176.712,51.604 177.136,51.604C177.698,51.604 178.123,51.807 178.411,52.219L180.463,54.748C179.733,55.583 178.948,56.262 178.105,56.786C177.262,57.311 176.396,57.72 175.508,58.016C174.619,58.314 173.731,58.517 172.841,58.633C171.952,58.745 171.106,58.803 170.301,58.803C168.647,58.803 167.092,58.533 165.643,57.993C164.193,57.454 162.924,56.654 161.838,55.591C160.751,54.527 159.894,53.205 159.264,51.625C158.634,50.045 158.318,48.208 158.318,46.112C158.318,44.532 158.587,43.038 159.127,41.624C159.665,40.213 160.441,38.975 161.45,37.912C162.46,36.849 163.684,36.006 165.117,35.383C166.556,34.76 168.175,34.449 169.982,34.449Z" style="fill:white;fill-rule:nonzero;"/>
        <path d="M183.802,58.438L183.802,34.814L188.177,34.814C188.616,34.814 188.984,34.911 189.28,35.108C189.578,35.307 189.784,35.603 189.907,35.997L190.317,37.365C190.773,36.938 191.242,36.545 191.73,36.179C192.216,35.816 192.735,35.508 193.291,35.257C193.844,35.006 194.444,34.809 195.091,34.665C195.735,34.522 196.437,34.449 197.197,34.449C198.488,34.449 199.632,34.672 200.625,35.12C201.62,35.568 202.46,36.191 203.144,36.99C203.829,37.786 204.342,38.735 204.694,39.838C205.042,40.937 205.217,42.134 205.217,43.425L205.217,58.438L198.154,58.438L198.154,43.425C198.154,42.271 197.887,41.37 197.357,40.726C196.825,40.079 196.045,39.757 195.012,39.757C194.236,39.757 193.507,39.924 192.823,40.258C192.14,40.593 191.488,41.041 190.864,41.603L190.864,58.438L183.802,58.438Z" style="fill:white;fill-rule:nonzero;"/>
        <path d="M219.701,39.324C218.35,39.324 217.294,39.709 216.535,40.476C215.775,41.241 215.274,42.347 215.031,43.79L223.846,43.79C223.846,43.228 223.775,42.681 223.632,42.149C223.486,41.618 223.251,41.142 222.926,40.726C222.598,40.307 222.169,39.97 221.638,39.712C221.106,39.453 220.461,39.324 219.701,39.324ZM219.565,34.449C221.129,34.449 222.561,34.692 223.858,35.176C225.158,35.664 226.275,36.369 227.207,37.297C228.141,38.223 228.87,39.358 229.396,40.702C229.918,42.046 230.181,43.569 230.181,45.27C230.181,45.8 230.158,46.235 230.111,46.567C230.067,46.903 229.982,47.169 229.862,47.366C229.741,47.564 229.578,47.699 229.372,47.776C229.167,47.852 228.905,47.889 228.585,47.889L214.963,47.889C215.191,49.865 215.791,51.297 216.763,52.185C217.735,53.072 218.988,53.516 220.522,53.516C221.342,53.516 222.048,53.419 222.64,53.221C223.233,53.024 223.761,52.804 224.223,52.561C224.686,52.316 225.111,52.097 225.499,51.9C225.887,51.702 226.295,51.604 226.718,51.604C227.28,51.604 227.704,51.807 227.994,52.219L230.044,54.748C229.315,55.583 228.529,56.262 227.687,56.786C226.844,57.311 225.979,57.72 225.09,58.016C224.202,58.314 223.313,58.517 222.423,58.633C221.535,58.745 220.687,58.803 219.884,58.803C218.228,58.803 216.676,58.533 215.224,57.993C213.774,57.454 212.505,56.654 211.421,55.591C210.334,54.527 209.475,53.205 208.845,51.625C208.215,50.045 207.899,48.208 207.899,46.112C207.899,44.532 208.169,43.038 208.708,41.624C209.248,40.213 210.024,38.975 211.032,37.912C212.042,36.849 213.265,36.006 214.7,35.383C216.137,34.76 217.756,34.449 219.565,34.449Z" style="fill:white;fill-rule:nonzero;"/>
        <path d="M248.127,39.983C247.943,40.274 247.751,40.479 247.547,40.6C247.342,40.722 247.081,40.782 246.762,40.782C246.429,40.782 246.097,40.711 245.762,40.565C245.428,40.421 245.07,40.266 244.683,40.099C244.295,39.932 243.861,39.777 243.375,39.631C242.889,39.487 242.336,39.414 241.716,39.414C240.822,39.414 240.135,39.587 239.658,39.927C239.18,40.269 238.943,40.744 238.943,41.352C238.943,41.792 239.096,42.157 239.408,42.444C239.718,42.734 240.132,42.989 240.647,43.208C241.162,43.428 241.745,43.638 242.398,43.834C243.05,44.031 243.715,44.253 244.399,44.496C245.082,44.739 245.747,45.024 246.399,45.351C247.052,45.676 247.634,46.078 248.15,46.557C248.665,47.035 249.078,47.617 249.389,48.3C249.701,48.984 249.854,49.804 249.854,50.761C249.854,51.93 249.643,53.009 249.216,53.996C248.791,54.983 248.158,55.834 247.315,56.547C246.473,57.261 245.431,57.816 244.195,58.209C242.956,58.605 241.533,58.803 239.923,58.803C239.116,58.803 238.313,58.725 237.506,58.575C236.703,58.423 235.924,58.218 235.172,57.958C234.42,57.7 233.724,57.393 233.088,57.037C232.45,56.68 231.902,56.297 231.446,55.887L233.088,53.29C233.286,52.986 233.519,52.747 233.793,52.571C234.068,52.397 234.425,52.31 234.864,52.31C235.275,52.31 235.643,52.401 235.971,52.582C236.297,52.764 236.648,52.963 237.028,53.176C237.408,53.388 237.853,53.584 238.361,53.768C238.87,53.95 239.513,54.041 240.286,54.041C240.832,54.041 241.296,53.984 241.675,53.87C242.055,53.757 242.36,53.601 242.588,53.402C242.814,53.205 242.982,52.986 243.089,52.743C243.194,52.5 243.249,52.249 243.249,51.991C243.249,51.52 243.089,51.133 242.77,50.829C242.45,50.525 242.032,50.263 241.516,50.042C241.001,49.824 240.412,49.617 239.751,49.427C239.089,49.237 238.419,49.022 237.736,48.777C237.052,48.536 236.379,48.243 235.719,47.901C235.058,47.561 234.469,47.126 233.954,46.602C233.437,46.078 233.02,45.437 232.699,44.678C232.38,43.919 232.222,43 232.222,41.921C232.222,40.919 232.415,39.967 232.804,39.062C233.191,38.158 233.77,37.365 234.546,36.682C235.319,35.997 236.293,35.454 237.462,35.052C238.632,34.651 239.997,34.449 241.563,34.449C242.412,34.449 243.237,34.525 244.034,34.677C244.831,34.829 245.579,35.04 246.279,35.315C246.976,35.588 247.614,35.912 248.192,36.282C248.768,36.654 249.277,37.061 249.717,37.502L248.127,39.983Z" style="fill:white;fill-rule:nonzero;"/>
        <path d="M259.962,34.814L259.962,58.438L252.898,58.438L252.898,34.814L259.962,34.814ZM260.782,28.342C260.782,28.904 260.665,29.432 260.439,29.926C260.212,30.42 259.899,30.854 259.504,31.225C259.11,31.598 258.649,31.893 258.127,32.115C257.601,32.333 257.044,32.443 256.452,32.443C255.873,32.443 255.335,32.333 254.836,32.115C254.333,31.893 253.889,31.598 253.502,31.225C253.113,30.854 252.811,30.42 252.589,29.926C252.371,29.432 252.258,28.904 252.258,28.342C252.258,27.765 252.371,27.227 252.589,26.726C252.811,26.225 253.113,25.784 253.502,25.405C253.889,25.025 254.333,24.727 254.836,24.516C255.335,24.303 255.873,24.197 256.452,24.197C257.044,24.197 257.601,24.303 258.127,24.516C258.649,24.727 259.11,25.025 259.504,25.405C259.899,25.784 260.212,26.225 260.439,26.726C260.665,27.227 260.782,27.765 260.782,28.342Z" style="fill:white;fill-rule:nonzero;"/>
        <path d="M279.241,39.983C279.059,40.274 278.866,40.479 278.661,40.6C278.458,40.722 278.195,40.782 277.876,40.782C277.545,40.782 277.211,40.711 276.876,40.565C276.544,40.421 276.184,40.266 275.797,40.099C275.409,39.932 274.973,39.777 274.49,39.631C274.004,39.487 273.452,39.414 272.83,39.414C271.936,39.414 271.249,39.587 270.774,39.927C270.294,40.269 270.057,40.744 270.057,41.352C270.057,41.792 270.214,42.157 270.523,42.444C270.833,42.734 271.246,42.989 271.763,43.208C272.276,43.428 272.861,43.638 273.511,43.834C274.164,44.031 274.832,44.253 275.514,44.496C276.195,44.739 276.861,45.024 277.514,45.351C278.166,45.676 278.749,46.078 279.264,46.557C279.779,47.035 280.192,47.617 280.503,48.3C280.813,48.984 280.971,49.804 280.971,50.761C280.971,51.93 280.757,53.009 280.332,53.996C279.906,54.983 279.272,55.834 278.429,56.547C277.586,57.261 276.545,57.816 275.308,58.209C274.071,58.605 272.647,58.803 271.037,58.803C270.23,58.803 269.427,58.725 268.622,58.575C267.815,58.423 267.038,58.218 266.287,57.958C265.534,57.7 264.838,57.393 264.202,57.037C263.564,56.68 263.016,56.297 262.56,55.887L264.202,53.29C264.398,52.986 264.635,52.747 264.908,52.571C265.182,52.397 265.537,52.31 265.978,52.31C266.389,52.31 266.757,52.401 267.085,52.582C267.41,52.764 267.762,52.963 268.142,53.176C268.522,53.388 268.967,53.584 269.475,53.768C269.984,53.95 270.627,54.041 271.401,54.041C271.946,54.041 272.411,53.984 272.791,53.87C273.171,53.757 273.474,53.601 273.701,53.402C273.93,53.205 274.097,52.986 274.203,52.743C274.31,52.5 274.363,52.249 274.363,51.991C274.363,51.52 274.203,51.133 273.884,50.829C273.567,50.525 273.148,50.263 272.63,50.042C272.115,49.824 271.527,49.617 270.865,49.427C270.206,49.237 269.533,49.022 268.85,48.777C268.166,48.536 267.495,48.243 266.833,47.901C266.172,47.561 265.584,47.126 265.068,46.602C264.551,46.078 264.134,45.437 263.815,44.678C263.496,43.919 263.335,43 263.335,41.921C263.335,40.919 263.529,39.967 263.917,39.062C264.304,38.158 264.886,37.365 265.66,36.682C266.433,35.997 267.407,35.454 268.575,35.052C269.746,34.651 271.111,34.449 272.677,34.449C273.528,34.449 274.351,34.525 275.15,34.677C275.945,34.829 276.693,35.04 277.393,35.315C278.091,35.588 278.729,35.912 279.307,36.282C279.884,36.654 280.392,37.061 280.833,37.502L279.241,39.983Z" style="fill:white;fill-rule:nonzero;"/>
        <g transform="matrix(48.197,0,0,48.197,291.313,58.224)">
            <path d="M0.096,0L0.195,0L0.195,-0.261L0.354,-0.261C0.483,-0.261 0.576,-0.351 0.576,-0.485C0.576,-0.619 0.483,-0.706 0.354,-0.706L0.096,-0.706L0.096,0ZM0.195,-0.347L0.195,-0.62L0.339,-0.62C0.423,-0.62 0.475,-0.57 0.475,-0.485C0.475,-0.4 0.423,-0.347 0.338,-0.347L0.195,-0.347Z" style="fill:white;fill-rule:nonzero;"/>
        </g>
        <g transform="matrix(48.197,0,0,48.197,320.569,58.224)">
            <path d="M0.076,0L0.173,0L0.173,-0.207C0.173,-0.238 0.176,-0.269 0.185,-0.298C0.208,-0.373 0.265,-0.417 0.327,-0.417C0.342,-0.417 0.355,-0.414 0.355,-0.414L0.355,-0.51C0.355,-0.51 0.343,-0.512 0.33,-0.512C0.252,-0.512 0.193,-0.454 0.17,-0.38L0.168,-0.38C0.168,-0.38 0.17,-0.397 0.17,-0.418L0.17,-0.506L0.076,-0.506L0.076,0Z" style="fill:white;fill-rule:nonzero;"/>
        </g>
        <g transform="matrix(48.197,0,0,48.197,338.498,58.224)">
            <path d="M0.039,-0.254C0.039,-0.1 0.161,0.012 0.312,0.012C0.463,0.012 0.585,-0.1 0.585,-0.254C0.585,-0.407 0.463,-0.518 0.312,-0.518C0.161,-0.518 0.039,-0.407 0.039,-0.254ZM0.138,-0.254C0.138,-0.359 0.217,-0.434 0.312,-0.434C0.408,-0.434 0.486,-0.359 0.486,-0.254C0.486,-0.148 0.408,-0.072 0.312,-0.072C0.217,-0.072 0.138,-0.148 0.138,-0.254Z" style="fill:white;fill-rule:nonzero;"/>
        </g>
        <path d="M48.22,44.989C48.54,45.889 48.983,46.65 49.548,47.269C50.113,47.889 50.783,48.362 51.558,48.687C52.333,49.012 53.18,49.174 54.1,49.174C54.8,49.174 55.42,49.114 55.96,48.994C56.501,48.874 57.01,48.714 57.49,48.514L57.49,45.199L55.33,45.199C55.01,45.199 54.76,45.114 54.58,44.945C54.4,44.775 54.31,44.56 54.31,44.299L54.31,41.509L62.08,41.509L62.08,50.735C61.52,51.145 60.938,51.497 60.333,51.791C59.728,52.087 59.083,52.329 58.398,52.519C57.713,52.709 56.982,52.849 56.208,52.94C55.433,53.03 54.6,53.074 53.71,53.074C52.11,53.074 50.63,52.792 49.27,52.227C47.91,51.662 46.733,50.882 45.738,49.887C44.743,48.892 43.962,47.712 43.398,46.347C42.833,44.982 42.55,43.499 42.55,41.899C42.55,40.27 42.82,38.771 43.36,37.406C43.9,36.041 44.673,34.864 45.678,33.874C46.683,32.884 47.898,32.114 49.323,31.565C50.748,31.014 52.34,30.739 54.1,30.739C55.01,30.739 55.865,30.815 56.665,30.964C57.465,31.114 58.203,31.32 58.878,31.579C59.553,31.839 60.17,32.149 60.731,32.509C61.29,32.869 61.79,33.259 62.231,33.678L60.76,35.914C60.62,36.124 60.453,36.289 60.258,36.409C60.063,36.529 59.85,36.589 59.62,36.589C59.32,36.589 59.01,36.489 58.69,36.289C58.29,36.049 57.913,35.842 57.558,35.666C57.203,35.491 56.84,35.349 56.47,35.239C56.1,35.129 55.71,35.049 55.3,34.999C54.89,34.949 54.43,34.924 53.92,34.924C52.97,34.924 52.115,35.092 51.356,35.427C50.595,35.761 49.948,36.235 49.413,36.844C48.877,37.454 48.465,38.186 48.175,39.041C47.885,39.896 47.74,40.849 47.74,41.899C47.74,43.06 47.9,44.089 48.22,44.989ZM94.879,46.038C94.148,48.098 93.257,49.965 92.172,51.537C93.26,47.482 93.74,43.195 93.514,38.784C91.917,17.55 74.194,0.813 52.55,0.813C38.946,0.813 26.898,7.432 19.419,17.616C18.99,18.23 18.565,18.85 18.165,19.494C15.688,23.48 13.987,27.726 13,32.058C12.857,28.355 13.41,24.343 14.606,20.146C10.84,20.665 7.668,21.591 5.261,22.914C5.262,22.914 5.263,22.915 5.264,22.915C3.134,24.088 1.598,25.571 0.787,27.362C0.785,27.367 0.782,27.373 0.779,27.378C0.664,27.635 0.563,27.898 0.478,28.167C0.375,28.491 0.297,28.822 0.24,29.156C0.223,29.255 0.221,29.358 0.208,29.458C0.178,29.695 0.146,29.932 0.138,30.175C0.135,30.289 0.145,30.406 0.146,30.521C0.148,30.754 0.148,30.986 0.17,31.223C0.181,31.338 0.205,31.455 0.22,31.571C0.252,31.812 0.283,32.053 0.334,32.298C0.357,32.408 0.393,32.521 0.42,32.632C0.482,32.886 0.545,33.14 0.628,33.397C0.661,33.5 0.704,33.605 0.741,33.709C0.835,33.978 0.933,34.248 1.049,34.52C1.089,34.613 1.137,34.708 1.18,34.802C1.309,35.088 1.443,35.374 1.596,35.663C1.639,35.745 1.689,35.829 1.735,35.912C1.901,36.215 2.075,36.519 2.266,36.824C2.31,36.895 2.359,36.966 2.404,37.036C2.61,37.357 2.825,37.678 3.057,38.002C3.099,38.06 3.145,38.119 3.187,38.177C3.435,38.515 3.692,38.853 3.967,39.192C4.004,39.238 4.043,39.283 4.081,39.329C4.37,39.683 4.672,40.037 4.992,40.392C5.022,40.426 5.054,40.46 5.084,40.494C5.418,40.862 5.765,41.231 6.129,41.6C6.151,41.623 6.174,41.645 6.196,41.667C6.573,42.049 6.965,42.43 7.375,42.812C7.388,42.824 7.402,42.837 7.416,42.85C7.835,43.241 8.271,43.632 8.724,44.024C8.729,44.029 8.735,44.033 8.742,44.039C9.202,44.437 9.678,44.834 10.17,45.231C10.171,45.232 10.172,45.233 10.173,45.234C10.669,45.633 11.182,46.031 11.71,46.43C19.652,52.421 31.136,58.193 44.467,62.41C46.905,63.182 49.32,63.87 51.704,64.487C36.799,62.459 24.329,59.906 12.847,52.488C17.516,70.054 33.515,83 52.55,83C65.916,83 77.786,76.616 85.291,66.735C93.066,65.723 98.389,63.014 99.765,58.667C100.941,54.948 99.061,50.549 94.879,46.038Z" style="fill:white;"/>
    </g>
</svg>
