<?xml version="1.0" encoding="UTF-8" standalone="no"?><!DOCTYPE svg PUBLIC "-//W3C//DTD SVG 1.1//EN" "http://www.w3.org/Graphics/SVG/1.1/DTD/svg11.dtd"><svg width="100%" height="100%" viewBox="0 0 128 129" version="1.1" xmlns="http://www.w3.org/2000/svg" xmlns:xlink="http://www.w3.org/1999/xlink" xml:space="preserve" xmlns:serif="http://www.serif.com/" style="fill-rule:evenodd;clip-rule:evenodd;stroke-linejoin:round;stroke-miterlimit:2;"><rect id="wp.org_icon_genesis_custom_blocks" x="0" y="0.742" width="128" height="128" style="fill:none;"/><clipPath id="_clip1"><rect x="0" y="0.742" width="128" height="128"/></clipPath><g clip-path="url(#_clip1)"><rect x="0" y="0.742" width="256" height="256" style="fill:#0057cc;"/><path d="M62.099,67.821c0.319,0.898 0.762,1.659 1.326,2.277c0.564,0.619 1.233,1.091 2.007,1.416c0.775,0.325 1.62,0.486 2.539,0.486c0.699,0 1.319,-0.06 1.858,-0.179c0.54,-0.12 1.049,-0.28 1.528,-0.48l-0,-3.311l-2.157,0c-0.32,0 -0.57,-0.085 -0.749,-0.253c-0.18,-0.17 -0.27,-0.385 -0.27,-0.646l0,-2.786l7.76,0l0,9.214c-0.559,0.41 -1.14,0.761 -1.745,1.055c-0.604,0.296 -1.248,0.537 -1.932,0.727c-0.684,0.19 -1.414,0.33 -2.187,0.421c-0.774,0.089 -1.606,0.133 -2.495,0.133c-1.598,0 -3.076,-0.281 -4.435,-0.846c-1.358,-0.564 -2.533,-1.343 -3.527,-2.337c-0.994,-0.993 -1.774,-2.172 -2.337,-3.535c-0.565,-1.363 -0.847,-2.844 -0.847,-4.442c-0,-1.627 0.27,-3.125 0.809,-4.488c0.539,-1.363 1.311,-2.539 2.315,-3.527c1.004,-0.989 2.217,-1.758 3.64,-2.306c1.424,-0.551 3.013,-0.825 4.771,-0.825c0.909,-0 1.763,0.076 2.562,0.224c0.799,0.15 1.536,0.356 2.21,0.615c0.674,0.259 1.291,0.569 1.851,0.928c0.558,0.36 1.058,0.749 1.498,1.168l-1.469,2.233c-0.14,0.21 -0.307,0.375 -0.502,0.494c-0.194,0.12 -0.407,0.18 -0.637,0.18c-0.299,0 -0.609,-0.1 -0.929,-0.299c-0.399,-0.24 -0.776,-0.447 -1.13,-0.623c-0.355,-0.174 -0.717,-0.316 -1.087,-0.426c-0.369,-0.11 -0.759,-0.19 -1.168,-0.24c-0.41,-0.05 -0.869,-0.075 -1.379,-0.075c-0.948,0 -1.802,0.168 -2.56,0.503c-0.76,0.333 -1.406,0.807 -1.941,1.415c-0.535,0.609 -0.947,1.34 -1.236,2.194c-0.29,0.854 -0.435,1.806 -0.435,2.855c0,1.159 0.16,2.187 0.48,3.086Zm46.6,1.047c-0.73,2.058 -1.62,3.922 -2.704,5.492c1.087,-4.05 1.566,-8.331 1.341,-12.737c-1.595,-21.207 -19.296,-37.923 -40.913,-37.923c-13.587,0 -25.619,6.611 -33.089,16.782c-0.428,0.613 -0.853,1.233 -1.252,1.876c-2.474,3.981 -4.173,8.221 -5.159,12.548c-0.143,-3.698 0.41,-7.705 1.604,-11.897c-3.761,0.518 -6.929,1.443 -9.333,2.764c0.001,0 0.002,0.001 0.003,0.001c-2.127,1.172 -3.661,2.653 -4.471,4.442c-0.002,0.005 -0.005,0.011 -0.008,0.016c-0.115,0.257 -0.216,0.519 -0.301,0.788c-0.103,0.323 -0.181,0.654 -0.238,0.988c-0.017,0.098 -0.019,0.201 -0.032,0.301c-0.03,0.237 -0.062,0.474 -0.07,0.716c-0.003,0.114 0.007,0.231 0.008,0.346c0.002,0.233 0.002,0.464 0.024,0.701c0.011,0.115 0.035,0.232 0.05,0.348c0.032,0.24 0.063,0.481 0.114,0.726c0.023,0.11 0.059,0.222 0.086,0.333c0.062,0.254 0.125,0.508 0.208,0.764c0.033,0.103 0.076,0.208 0.113,0.312c0.094,0.269 0.191,0.538 0.307,0.81c0.04,0.093 0.088,0.188 0.131,0.281c0.129,0.286 0.263,0.572 0.416,0.86c0.042,0.082 0.092,0.166 0.138,0.249c0.166,0.303 0.34,0.606 0.531,0.911c0.044,0.071 0.093,0.142 0.138,0.212c0.205,0.32 0.42,0.641 0.652,0.964c0.042,0.058 0.088,0.117 0.13,0.175c0.247,0.338 0.504,0.675 0.779,1.014c0.037,0.046 0.075,0.091 0.113,0.137c0.289,0.353 0.591,0.707 0.91,1.061c0.03,0.034 0.062,0.068 0.092,0.102c0.334,0.368 0.68,0.736 1.044,1.105c0.022,0.023 0.045,0.045 0.067,0.067c0.376,0.381 0.768,0.762 1.177,1.143c0.013,0.012 0.027,0.025 0.041,0.038c0.419,0.391 0.854,0.781 1.307,1.173c0.005,0.005 0.011,0.009 0.018,0.015c0.459,0.397 0.934,0.794 1.426,1.19c0.001,0.001 0.002,0.002 0.003,0.003c0.495,0.399 1.007,0.796 1.535,1.195c7.932,5.983 19.401,11.748 32.715,15.96c2.435,0.771 4.847,1.458 7.228,2.074c-14.886,-2.025 -27.34,-4.575 -38.808,-11.984c4.663,17.544 20.642,30.474 39.653,30.474c13.349,-0 25.204,-6.376 32.7,-16.245c7.765,-1.011 13.081,-3.716 14.456,-8.058c1.174,-3.714 -0.703,-8.107 -4.88,-12.613Z" style="fill:#fff;"/></g></svg>